Coordinates
version=1
nRows=10
nColumns=40
inDegrees=yes

Units are S.I. units (second, meters, Newtons, ...)
If the header above contains a line with 'inDegrees', this indicates whether rotational values are in degrees (yes) or radians (no).

endheader
time	pelvis_tilt	pelvis_list	pelvis_rotation	pelvis_tx	pelvis_ty	pelvis_tz	hip_flexion_r	hip_adduction_r	hip_rotation_r	knee_angle_r	knee_angle_r_beta	ankle_angle_r	subtalar_angle_r	mtp_angle_r	hip_flexion_l	hip_adduction_l	hip_rotation_l	knee_angle_l	knee_angle_l_beta	ankle_angle_l	subtalar_angle_l	mtp_angle_l	lumbar_extension	lumbar_bending	lumbar_rotation	arm_flex_r	arm_add_r	arm_rot_r	elbow_flex_r	pro_sup_r	wrist_flex_r	wrist_dev_r	arm_flex_l	arm_add_l	arm_rot_l	elbow_flex_l	pro_sup_l	wrist_flex_l	wrist_dev_l
      2.84000000	     -3.03391489	      8.56282012	    -75.84931570	      0.20679956	      0.86904921	      0.66829690	     13.33680654	      4.50416079	    -18.68263070	     14.18680351	      0.24760643	      1.94921688	      0.00000000	      0.00000000	      4.99368074	    -12.98249564	      0.04209973	     43.29510949	      0.75564221	    -29.65290336	      0.00000000	      0.00000000	     -0.57618184	      1.37855769	     -8.10817154	     -4.08061100	     -8.85107878	      1.30031957	     44.50422215	     89.19966945	    -25.69915730	      3.28000637	     -0.58716427	     -8.45777417	      7.71416214	     45.68833968	     89.32388135	    -20.02632068	      0.92131779
      2.85000000	     -3.25453803	      8.97947550	    -75.66054920	      0.20623608	      0.86813999	      0.67015722	     13.75027222	      4.66236363	    -18.83887310	     14.29197204	      0.24944197	      2.12559273	      0.00000000	      0.00000000	      6.02935094	    -13.11963255	      0.33974193	     44.17469268	      0.77099383	    -29.71339451	      0.00000000	      0.00000000	     -0.02621774	      1.48724882	     -8.25859790	     -4.18114060	     -8.85366699	      1.51976637	     44.46855573	     89.19321484	    -25.57908638	      3.44359296	     -0.81454581	     -8.45829888	      7.52870121	     45.29886774	     89.32032737	    -19.97133311	      1.14103362
      2.86000000	     -3.13275866	      8.89371757	    -75.71400540	      0.20558353	      0.86815876	      0.67230189	     13.47614041	      4.66177466	    -18.76624672	     14.27846177	      0.24920617	      2.22542309	      0.00000000	      0.00000000	      6.24103396	    -13.05189972	      0.28187001	     44.75196388	      0.78106912	    -29.85642712	      0.00000000	      0.00000000	     -0.15773991	      1.37673933	     -8.15643957	     -4.24410075	     -8.80534644	      1.59348961	     44.44915600	     89.19689099	    -25.55458811	      3.44593499	     -0.92894003	     -8.50039002	      7.41213284	     44.93058355	     89.31907088	    -19.98350240	      1.19766962
      2.87000000	     -3.05102292	      8.80758866	    -75.78143997	      0.20482857	      0.86816785	      0.67418110	     13.24283462	      4.70875736	    -18.63501975	     14.27696286	      0.24918001	      2.38483567	      0.00000000	      0.00000000	      6.53839766	    -12.99983640	      0.30929445	     45.41737479	      0.79268273	    -29.99092798	      0.00000000	      0.00000000	     -0.32134895	      1.31310874	     -8.05204068	     -4.25415622	     -8.75272622	      1.70048197	     44.44210918	     89.19748663	    -25.51585067	      3.45009629	     -0.99641960	     -8.53391348	      7.25866797	     44.49553056	     89.32010155	    -20.00263669	      1.27496120
      2.88000000	     -2.95036830	      8.72337288	    -75.83024086	      0.20424772	      0.86816519	      0.67629633	     12.97630340	      4.71954463	    -18.57841002	     14.26388577	      0.24895177	      2.48729365	      0.00000000	      0.00000000	      6.80169738	    -12.93549966	      0.25881512	     46.03355923	      0.80343717	    -30.06332608	      0.00000000	      0.00000000	     -0.42799436	      1.23323828	     -7.95226170	     -4.33234769	     -8.71683996	      1.78534545	     44.40094246	     89.19666563	    -25.48753709	      3.45982586	     -1.14143335	     -8.56895323	      7.14240564	     44.12306884	     89.31748949	    -20.02237319	      1.33917448
      2.89000000	     -2.96319649	      8.69720754	    -75.84340133	      0.20363023	      0.86803951	      0.67797197	     12.85442447	      4.83034599	    -18.39077751	     14.29490437	      0.24949315	      2.68597449	      0.00000000	      0.00000000	      7.28547715	    -12.92170636	      0.41385462	     46.81753962	      0.81712021	    -29.91313545	      0.00000000	      0.00000000	     -0.48927006	      1.26708867	     -7.88583481	     -4.34430624	     -8.69853212	      1.93734655	     44.37032514	     89.19163109	    -25.41554965	      3.49207300	     -1.21931266	     -8.56560015	      6.95429197	     43.63730650	     89.31275833	    -20.06234273	      1.45855030
      2.90000000	     -2.84273610	      8.62753274	    -75.92141462	      0.20295358	      0.86803321	      0.68003463	     12.58894304	      4.82720710	    -18.40899949	     14.24307676	      0.24858859	      2.76165140	      0.00000000	      0.00000000	      7.60317236	    -12.84207627	      0.31415834	     47.45646946	      0.82827164	    -29.85940614	      0.00000000	      0.00000000	     -0.58245773	      1.14848949	     -7.76878879	     -4.41542670	     -8.63192830	      2.01434102	     44.31767900	     89.19406865	    -25.38493078	      3.51173035	     -1.39045197	     -8.62334679	      6.83862095	     43.27743403	     89.31520721	    -20.08761785	      1.52259995
      2.91000000	     -2.84962415	      8.61286971	    -75.93979706	      0.20239869	      0.86789381	      0.68170766	     12.46842925	      4.92764601	    -18.21390201	     14.25357814	      0.24877187	      2.93029753	      0.00000000	      0.00000000	      8.11939208	    -12.79451406	      0.47757614	     48.25359474	      0.84218410	    -29.31621090	      0.00000000	      0.00000000	     -0.61370380	      1.17210647	     -7.69488873	     -4.43854704	     -8.61575614	      2.14737591	     44.25446721	     89.18788026	    -25.30375223	      3.56654231	     -1.49504481	     -8.61612295	      6.64347743	     42.79650379	     89.30797828	    -20.14619273	      1.64307583
      2.92000000	     -2.72643846	      8.53824137	    -76.02123992	      0.20176064	      0.86790584	      0.68372283	     12.19320947	      4.91658057	    -18.24271140	     14.19606571	      0.24776809	      2.99953165	      0.00000000	      0.00000000	      8.46907815	    -12.70691970	      0.36317561	     48.89646553	      0.85340432	    -29.10460426	      0.00000000	      0.00000000	     -0.70344709	      1.05136826	     -7.56639720	     -4.51651602	     -8.54987547	      2.21902213	     44.18457092	     89.18537014	    -25.26877108	      3.59518627	     -1.68336432	     -8.67404495	      6.53355502	     42.44881726	     89.30347652	    -20.17668223	      1.70358814
      2.93000000	     -2.77287360	      8.56840254	    -76.03468317	      0.20125503	      0.86764453	      0.68544992	     12.12655418	      5.04474558	    -18.06482548	     14.21417352	      0.24808413	      3.16144435	      0.00000000	      0.00000000	      9.05160720	    -12.67407293	      0.53204742	     49.70496474	      0.86751529	    -27.95110036	      0.00000000	      0.00000000	     -0.64623366	      1.10924432	     -7.49711012	     -4.56921064	     -8.54520024	      2.35574956	     44.11195656	     89.18086513	    -25.15393025	      3.68579035	     -1.84263980	     -8.66287157	      6.34122327	     41.99581067	     89.30231974	    -20.26719460	      1.81641920
